<?xml version="1.0" encoding="UTF-8" standalone="no"?>
<svg
   xmlns:dc="http://purl.org/dc/elements/1.1/"
   xmlns:cc="http://creativecommons.org/ns#"
   xmlns:rdf="http://www.w3.org/1999/02/22-rdf-syntax-ns#"
   xmlns:svg="http://www.w3.org/2000/svg"
   xmlns="http://www.w3.org/2000/svg"
   xmlns:sodipodi="http://sodipodi.sourceforge.net/DTD/sodipodi-0.dtd"
   xmlns:inkscape="http://www.inkscape.org/namespaces/inkscape"
   width="24px"
   height="24px"
   version="1.1"
   viewBox="0 0 24 24"
   id="svg8"
   sodipodi:docname="icon.svg"
   inkscape:export-filename="C:\Local\vscode-extension\auto-arrange-tabs\icon.png"
   inkscape:export-xdpi="960"
   inkscape:export-ydpi="960"
   inkscape:version="1.0.1 (3bc2e813f5, 2020-09-07)">
  <metadata
     id="metadata14">
    <rdf:RDF>
      <cc:Work
         rdf:about="">
        <dc:format>image/svg+xml</dc:format>
        <dc:type
           rdf:resource="http://purl.org/dc/dcmitype/StillImage" />
        <dc:title></dc:title>
      </cc:Work>
    </rdf:RDF>
  </metadata>
  <defs
     id="defs12" />
  <sodipodi:namedview
     pagecolor="#ffffff"
     bordercolor="#666666"
     borderopacity="1"
     objecttolerance="10"
     gridtolerance="10"
     guidetolerance="10"
     inkscape:pageopacity="0"
     inkscape:pageshadow="2"
     inkscape:window-width="1920"
     inkscape:window-height="1009"
     id="namedview10"
     showgrid="false"
     inkscape:zoom="31.375"
     inkscape:cx="12"
     inkscape:cy="12"
     inkscape:window-x="-8"
     inkscape:window-y="-8"
     inkscape:window-maximized="1"
     inkscape:current-layer="svg8" />
  <path
     d="m-0.2704-1.713h24v24h-24zm0 0h24v24h-24z"
     fill="none"
     id="path2" />
  <path
     d="m3.022 3.17h18c1.1 0 2 0.9 2 2v14c0 1.1-0.9 2-2 2h-18c-1.1 0-2-0.9-2-2v-14c0-1.1 0.9-2 2-2zm0 16h18v-14h-10v4h-8z"
     fill="#36c"
     id="path4" />
  <path
     d="M 8.419876,3.0356053 5.776017,5.9930703 H 16.238948 V 7.6406547 H 5.776017 L 8.4272132,10.59812 7.3787189,11.759616 2.9482374,6.8168625 7.3787189,1.8741095 Z"
     fill="#ff9900"
     stroke-width="0.779911"
     id="path6" />
</svg>
